<?xml version="1.0" encoding="utf-8"?>
<svg id="master-artboard" viewBox="0 0 1700 1400" version="1.1" xmlns="http://www.w3.org/2000/svg" x="0px" y="0px" enable-background="new 0 0 1700 1400" width="1700px" height="1400px"><defs><radialGradient id="gradient-0" gradientUnits="objectBoundingBox" cx="0.5" cy="0.5" r="0.5">
                <stop offset="0" style="stop-color: #de5349"/>
                <stop offset="1" style="stop-color: #a3261e"/>
              </radialGradient></defs>
<path d="M 0 0 H 1700 V 1400 H 0 V 0 Z" fill="#DE5249" transform="matrix(1, 0, 0, 1, 0, 0)" style="fill-opacity: 0; fill: rgb(255, 184, 18); stroke-opacity: 1; stroke: rgb(0, 0, 0); stroke-width: 0;"/><path fill="#423E3D" d="M1442.1,899H1405v-57.9h95l0,0C1500,873.1,1474.1,899,1442.1,899z" transform="matrix(1, 0, 0, 1, 0, 0)"/><path fill="#423E3D" d="M765,899H492c-15.7,0-28.4-12.7-28.4-28.4v0H765V899z" transform="matrix(1, 0, 0, 1, 0, 0)"/><path fill="#423E3D" d="M1272.7,899h-273c-15.7,0-28.4-12.7-28.4-28.4v0h301.4V899z" transform="matrix(1, 0, 0, 1, 0, 0)"/><g transform="matrix(1, 0, 0, 1, 0, 0)">
				<path fill="#423E3D" d="M911.9,847c0-36.9-12.3-69.6-31.4-90v-21.8h-45.8c-42.6,0-77.2,50-77.2,111.8s34.6,111.8,77.2,111.8&#10;&#9;&#9;&#9;&#9;&#9;h45.8V937C899.5,916.6,911.9,883.9,911.9,847z"/>
				<path d="M 957.699997 847 A 77.199997 111.800003 0 0 1 880.5 958.800003 A 77.199997 111.800003 0 0 1 803.300003 847 A 77.199997 111.800003 0 0 1 880.5 735.199997 A 77.199997 111.800003 0 0 1 957.699997 847 Z" fill="#423E3D"/>
				<g>
					<path fill="#423E3D" d="M880.5,775.3c-2.3,0-4.5,0.4-6.7,1.1c19.1,5.9,34.6,36.4,34.6,70.6c0,34.2-15.5,64.7-34.6,70.6&#10;&#9;&#9;&#9;&#9;&#9;&#9;c2.2,0.7,4.4,1.1,6.7,1.1c22,0,41.3-33.5,41.3-71.7S902.5,775.3,880.5,775.3z"/>
					<path fill="#423E3D" d="M908.4,847c0-34.2-15.5-64.7-34.6-70.6c-19.1,5.9-34.6,36.4-34.6,70.6c0,34.2,15.5,64.7,34.6,70.6&#10;&#9;&#9;&#9;&#9;&#9;&#9;C892.9,911.7,908.4,881.2,908.4,847z"/>
				</g>
			</g><path fill="#423E3D" d="M419.6,847c0-36.9-12.3-69.6-31.4-90v-21.8h-45.8c-42.6,0-77.2,50-77.2,111.8s34.6,111.8,77.2,111.8&#10;&#9;&#9;&#9;&#9;&#9;h45.8V937C407.2,916.6,419.6,883.9,419.6,847z" transform="matrix(1, 0, 0, 1, 0, 0)"/><path d="M 465.400009 847 A 77.199997 111.800003 0 0 1 388.200012 958.800003 A 77.199997 111.800003 0 0 1 311.000015 847 A 77.199997 111.800003 0 0 1 388.200012 735.199997 A 77.199997 111.800003 0 0 1 465.400009 847 Z" fill="#423E3D" transform="matrix(1, 0, 0, 1, 0, 0)"/><path fill="#423E3D" d="M388.2,775.3c-2.3,0-4.5,0.4-6.7,1.1c19.1,5.9,34.6,36.4,34.6,70.6c0,34.2-15.5,64.7-34.6,70.6&#10;&#9;&#9;&#9;&#9;&#9;&#9;c2.2,0.7,4.4,1.1,6.7,1.1c22,0,41.3-33.5,41.3-71.7S410.2,775.3,388.2,775.3z" transform="matrix(1, 0, 0, 1, 0, 0)"/><path fill="#423E3D" d="M416.1,847c0-34.2-15.5-64.7-34.6-70.6c-19.1,5.9-34.6,36.4-34.6,70.6c0,34.2,15.5,64.7,34.6,70.6&#10;&#9;&#9;&#9;&#9;&#9;&#9;C400.6,911.7,416.1,881.2,416.1,847z" transform="matrix(1, 0, 0, 1, 0, 0)"/><path d="M 254.199997 645.5 H 521.499985 V 672.5 H 254.199997 V 645.5 Z" fill="#F6EFD1" transform="matrix(1, 0, 0, 1, 0, 0)"/><path d="M 254.199997 672.5 H 521.499985 V 797.800003 H 254.199997 V 672.5 Z" fill="#92C4C9" transform="matrix(1, 0, 0, 1, 0, 0)"/><path fill="#DE5249" d="M273.3,645.5L273.3,645.5h-19.1v4.6c-16.1,8.1-27.3,26.3-27.3,47.3v100.4h27.3h19.1h46.4V697.5&#10;&#9;&#9;&#9;&#9;C319.7,668.8,298.9,645.5,273.3,645.5z" transform="matrix(1, 0, 0, 1, 0, 0)"/><path fill="#FFC755" d="M300.6,797.9h-92.9V685.8c0-22.2,18-40.2,40.2-40.2h12.4c22.2,0,40.2,18,40.2,40.2V797.9z" transform="matrix(1, 0, 0, 1, 0, 0)"/><path fill="#423E3D" d="M218.1,797.9V697.5c0-22.3,16.2-40.4,36.1-40.4s36.1,18.1,36.1,40.4v100.4H218.1z" transform="matrix(1, 0, 0, 1, 0, 0)"/><path d="M 277.899998 708.599976 A 23.700001 36.099998 0 0 1 254.199997 744.699974 A 23.700001 36.099998 0 0 1 230.499996 708.599976 A 23.700001 36.099998 0 0 1 254.199997 672.499977 A 23.700001 36.099998 0 0 1 277.899998 708.599976 Z" fill="#F6EFD1" transform="matrix(1, 0, 0, 1, 0, 0)"/><path fill="#F6EFD1" d="M584.4,645.5l338.5-50.3H403.6c-32.3,0-60.3,20.4-74.3,50.3H584.4L584.4,645.5z" transform="matrix(1, 0, 0, 1, 0, 0)"/><path fill="#92C4C9" d="M1419.7,645.5L1419.7,645.5c0-27.8-20.1-50.3-45-50.3H922.9l-338.5,50.3H1419.7z" transform="matrix(1, 0, 0, 1, 0, 0)"/><path fill="#92C4C9" d="M584.4,672.5v-27H329.3c-6.1,13-9.6,27.8-9.6,43.5v108.8h264.7v43.2h185.2v-56c0-35,25.4-63.3,56.6-63.3&#10;&#9;&#9;&#9;&#9;&#9;h52.4c31.3,0,56.6,28.4,56.6,63.3v56H1262v-56c0-35,25.4-63.3,56.6-63.3h52.4c31.3,0,56.6,28.4,56.6,63.3v56h58.8v-43.2V672.5&#10;&#9;&#9;&#9;&#9;&#9;H584.4z" transform="matrix(1, 0, 0, 1, 0, 0)"/><path fill="#423E3D" d="M935.3,785.1c0-35-25.4-63.3-56.6-63.3h-52.4c-31.3,0-56.6,28.4-56.6,63.3v56h165.6V785.1z" transform="matrix(1, 0, 0, 1, 0, 0)"/><path fill="#FFC755" d="M882,847c0-36.9-12.3-69.6-31.4-90v-21.8h-45.8c-42.6,0-77.2,50-77.2,111.8s34.6,111.8,77.2,111.8h45.8&#10;&#9;&#9;&#9;&#9;&#9;V937C869.7,916.6,882,883.9,882,847z" transform="matrix(1, 0, 0, 1, 0, 0)"/><path d="M 927.900009 847 A 77.199997 111.800003 0 0 1 850.700012 958.800003 A 77.199997 111.800003 0 0 1 773.500015 847 A 77.199997 111.800003 0 0 1 850.700012 735.199997 A 77.199997 111.800003 0 0 1 927.900009 847 Z" fill="#DE5249" transform="matrix(1, 0, 0, 1, 0, 0)"/><path fill="#92C4C9" d="M850.7,775.3c-2.3,0-4.5,0.4-6.7,1.1c19.1,5.9,34.6,36.4,34.6,70.6c0,34.2-15.5,64.7-34.6,70.6&#10;&#9;&#9;&#9;&#9;&#9;&#9;c2.2,0.7,4.4,1.1,6.7,1.1c22,0,41.3-33.5,41.3-71.7S872.7,775.3,850.7,775.3z" transform="matrix(1, 0, 0, 1, 0, 0)"/><path fill="#F6EFD1" d="M878.6,847c0-34.2-15.5-64.7-34.6-70.6c-19.1,5.9-34.6,36.4-34.6,70.6c0,34.2,15.5,64.7,34.6,70.6&#10;&#9;&#9;&#9;&#9;&#9;&#9;C863,911.7,878.6,881.2,878.6,847z" transform="matrix(1, 0, 0, 1, 0, 0)"/><path fill="#423E3D" d="M1371,721.7h-52.4c-31.3,0-56.6,28.4-56.6,63.3v56h165.6v-56C1427.6,750.1,1402.2,721.7,1371,721.7z" transform="matrix(1, 0, 0, 1, 0, 0)"/><path fill="#FFC755" d="M1374.4,847c0-36.9-12.3-69.6-31.4-90v-21.8h-45.8c-42.6,0-77.2,50-77.2,111.8s34.6,111.8,77.2,111.8&#10;&#9;&#9;&#9;&#9;&#9;h45.8V937C1362,916.6,1374.4,883.9,1374.4,847z" transform="matrix(1, 0, 0, 1, 0, 0)"/><path d="M 1420.199997 847 A 77.199997 111.800003 0 0 1 1343 958.800003 A 77.199997 111.800003 0 0 1 1265.800003 847 A 77.199997 111.800003 0 0 1 1343 735.199997 A 77.199997 111.800003 0 0 1 1420.199997 847 Z" fill="#DE5249" transform="matrix(1, 0, 0, 1, 0, 0)"/><path fill="#92C4C9" d="M1343,775.3c-2.3,0-4.5,0.4-6.7,1.1c19.1,5.9,34.6,36.4,34.6,70.6c0,34.2-15.5,64.7-34.6,70.6&#10;&#9;&#9;&#9;&#9;&#9;&#9;c2.2,0.7,4.4,1.1,6.7,1.1c22,0,41.3-33.5,41.3-71.7S1365,775.3,1343,775.3z" transform="matrix(1, 0, 0, 1, 0, 0)"/><path fill="#F6EFD1" d="M1370.9,847c0-34.2-15.5-64.7-34.6-70.6c-19.1,5.9-34.6,36.4-34.6,70.6c0,34.2,15.5,64.7,34.6,70.6&#10;&#9;&#9;&#9;&#9;&#9;&#9;C1355.3,911.7,1370.9,881.2,1370.9,847z" transform="matrix(1, 0, 0, 1, 0, 0)"/><path d="M 265.199997 770.700012 A 11 16.700001 0 0 1 254.199997 787.400013 A 11 16.700001 0 0 1 243.199997 770.700012 A 11 16.700001 0 0 1 254.199997 754.000011 A 11 16.700001 0 0 1 265.199997 770.700012 Z" fill="#F6EFD1" transform="matrix(1, 0, 0, 1, 0, 0)"/><path fill="#F6EFD1" d="M584.4,672.5h902l0,0c0-14.9-10.8-27-24.2-27H584.4V672.5z" transform="matrix(1, 0, 0, 1, 0, 0)"/><path d="M 630.9000244140625 834.2999877929688 L 158.8000030517578 834.2999877929688 L 187.60000610351562 797.9000244140625 L 659.7999877929688 797.9000244140625 Z" fill="#F6EFD1" transform="matrix(1, 0, 0, 1, 0, 0)"/><path d="M 630.9000244140625 834.2999877929688 L 158.8000030517578 834.2999877929688 L 187.60000610351562 870.5999755859375 L 659.7999877929688 870.5999755859375 Z" fill="#FFC755" transform="matrix(1, 0, 0, 1, 0, 0)"/><path d="M 630.9000244140625 834.2999877929688 L 659.7999877929688 797.9000244140625 L 769.7000122070312 797.9000244140625 L 769.7000122070312 870.5999755859375 L 659.7999877929688 870.5999755859375 Z" fill="#DE5249" transform="matrix(1, 0, 0, 1, 0, 0)"/><path d="M 987.2000122070312 834.2999877929688 L 1297.199951171875 834.2999877929688 L 1268.300048828125 870.5999755859375 L 958.2999877929688 870.5999755859375 Z" fill="#FFC755" transform="matrix(1, 0, 0, 1, 0, 0)"/><path d="M 987.2000122070312 834.2999877929688 L 1297.199951171875 834.2999877929688 L 1268.300048828125 797.9000244140625 L 958.2999877929688 797.9000244140625 Z" fill="#F6EFD1" transform="matrix(1, 0, 0, 1, 0, 0)"/><path d="M 987.2000122070312 834.2999877929688 L 958.2999877929688 870.5999755859375 L 935.2999877929688 870.5999755859375 L 935.2999877929688 797.9000244140625 L 958.2999877929688 797.9000244140625 Z" fill="#DE5249" transform="matrix(1, 0, 0, 1, 0, 0)"/><path d="M 1479.5 834.2999877929688 L 1541.199951171875 834.2999877929688 L 1512.4000244140625 870.5999755859375 L 1450.5999755859375 870.5999755859375 Z" fill="#FFC755" transform="matrix(1, 0, 0, 1, 0, 0)"/><path d="M 1479.5 834.2999877929688 L 1541.199951171875 834.2999877929688 L 1512.4000244140625 797.9000244140625 L 1450.5999755859375 797.9000244140625 Z" fill="#F6EFD1" transform="matrix(1, 0, 0, 1, 0, 0)"/><path d="M 1479.5 834.2999877929688 L 1450.5999755859375 870.5999755859375 L 1427.5999755859375 870.5999755859375 L 1427.5999755859375 797.9000244140625 L 1450.5999755859375 797.9000244140625 Z" fill="#DE5249" transform="matrix(1, 0, 0, 1, 0, 0)"/><path fill="#DE5249" d="M603.5,645.5L603.5,645.5h-19.1v4.6c-16.1,8.1-27.3,26.3-27.3,47.3v100.4h27.3h19.1H650V697.5&#10;&#9;&#9;&#9;&#9;&#9;C650,668.8,629.2,645.5,603.5,645.5z" transform="matrix(1, 0, 0, 1, 0, 0)"/><path fill="#FFC755" d="M630.9,797.9H538V685.8c0-22.2,18-40.2,40.2-40.2h12.4c22.2,0,40.2,18,40.2,40.2V797.9z" transform="matrix(1, 0, 0, 1, 0, 0)"/><path fill="#423E3D" d="M548.3,797.9V697.5c0-22.3,16.2-40.4,36.1-40.4c19.9,0,36.1,18.1,36.1,40.4v100.4H548.3z" transform="matrix(1, 0, 0, 1, 0, 0)"/><path d="M 608.100025 708.599976 A 23.700001 36.099998 0 0 1 584.400024 744.699974 A 23.700001 36.099998 0 0 1 560.700024 708.599976 A 23.700001 36.099998 0 0 1 584.400024 672.499977 A 23.700001 36.099998 0 0 1 608.100025 708.599976 Z" fill="#F6EFD1" transform="matrix(1, 0, 0, 1, 0, 0)"/><path d="M 595.400024 770.700012 A 11 16.700001 0 0 1 584.400024 787.400013 A 11 16.700001 0 0 1 573.400024 770.700012 A 11 16.700001 0 0 1 584.400024 754.000011 A 11 16.700001 0 0 1 595.400024 770.700012 Z" fill="#F6EFD1" transform="matrix(1, 0, 0, 1, 0, 0)"/><path d="M 957.4000244140625 467.20001220703125 L 677.7000122070312 467.20001220703125 L 603.5 595.2000122070312 L 922.9000244140625 595.2000122070312 Z" fill="#FFC755" transform="matrix(1, 0, 0, 1, 0, 0)"/><path d="M 944.2999877929688 595.2000122070312 L 978.7000122070312 467.20001220703125 L 957.4000244140625 467.20001220703125 L 922.9000244140625 595.2000122070312 Z" fill="#F6EFD1" transform="matrix(1, 0, 0, 1, 0, 0)"/><path d="M 964.5999755859375 595.2000122070312 L 999 467.20001220703125 L 978.5999755859375 467.20001220703125 L 944.2000122070312 595.2000122070312 Z" fill="#92C4C9" transform="matrix(1, 0, 0, 1, 0, 0)"/><path d="M 950.2999877929688 441.20001220703125 L 978.7999877929688 467.20001220703125 L 678.5 467.20001220703125 L 650 441.20001220703125 Z" fill="#F6EFD1" transform="matrix(1, 0, 0, 1, 0, 0)"/><path d="M 964.5999755859375 595.2000122070312 L 999 467.20001220703125 L 1097.699951171875 467.20001220703125 L 1097.699951171875 595.2000122070312 Z" fill="#F6EFD1" transform="matrix(1, 0, 0, 1, 0, 0)"/><path d="M 1097.699951 467.200012 H 1121.99995 V 595.200012 H 1097.699951 V 467.200012 Z" fill="#92C4C9" transform="matrix(1, 0, 0, 1, 0, 0)"/><path d="M 1285.5 595.2000122070312 L 1122 595.2000122070312 L 1122 467.20001220703125 L 1235.5999755859375 467.20001220703125 Z" fill="#F6EFD1" transform="matrix(1, 0, 0, 1, 0, 0)"/><path d="M 1306.199951171875 595.2000122070312 L 1256.300048828125 467.20001220703125 L 1235.5999755859375 467.20001220703125 L 1285.5 595.2000122070312 Z" fill="#92C4C9" transform="matrix(1, 0, 0, 1, 0, 0)"/><path fill="#FFC755" d="M978.8,467.2h277.5v0c0-14.3-10.4-26-23.2-26H950.3L978.8,467.2z" transform="matrix(1, 0, 0, 1, 0, 0)"/><path fill="#423E3D" d="M448.2,731.2h-38.7c-39,0-72.2,27.8-84.6,66.7h207.9C520.4,759,487.2,731.2,448.2,731.2z" transform="matrix(1, 0, 0, 1, 0, 0)"/><g transform="matrix(1, 0, 0, 1, 0, 0)">
					<path d="M 457.5 721.700012 H 472.2 V 797.900009 H 457.5 V 721.700012 Z" fill="#FFC755"/>
					<path d="M 472.200012 721.700012 H 486.900012 V 797.900009 H 472.200012 V 721.700012 Z" fill="#DE5249"/>
				</g><path d="M 409.299988 721.700012 H 423.999988 V 797.900009 H 409.299988 V 721.700012 Z" fill="#FFC755" transform="matrix(1, 0, 0, 1, 0, 0)"/><path d="M 424 721.700012 H 438.7 V 797.900009 H 424 V 721.700012 Z" fill="#DE5249" transform="matrix(1, 0, 0, 1, 0, 0)"/><path d="M 361 721.700012 H 375.7 V 797.900009 H 361 V 721.700012 Z" fill="#FFC755" transform="matrix(1, 0, 0, 1, 0, 0)"/><path d="M 375.700012 721.700012 H 390.400012 V 797.900009 H 375.700012 V 721.700012 Z" fill="#DE5249" transform="matrix(1, 0, 0, 1, 0, 0)"/><path fill="#F6EFD1" d="M538,797.9c0-55.5-40.2-100.4-89.8-100.4h-38.7c-49.6,0-89.8,45-89.8,100.4v0h5.2&#10;&#9;&#9;&#9;&#9;c12.4-38.9,45.6-66.7,84.6-66.7h38.7c39,0,72.2,27.8,84.6,66.7L538,797.9L538,797.9z" transform="matrix(1, 0, 0, 1, 0, 0)"/><path d="M 1106.300049 595.200012 H 1113.400049 V 645.500011 H 1106.300049 V 595.200012 Z" fill="#423E3D" transform="matrix(1, 0, 0, 1, 0, 0)"/><path d="M 1106.300049 672.5 H 1113.400049 V 797.800003 H 1106.300049 V 672.5 Z" fill="#423E3D" transform="matrix(1, 0, 0, 1, 0, 0)"/><path d="M 1113.400024 645.5 H 1120.500024 V 672.5 H 1113.400024 V 645.5 Z" fill="#423E3D" transform="matrix(1, 0, 0, 1, 0, 0)"/><path fill="#423E3D" d="M134.2,958.8h1431.5c6.1,0,11,4.9,11,11v0c0,6.1-4.9,11-11,11h-97.6h-44h-49.7c-6.1,0-11,4.9-11,11&#10;&#9;&#9;&#9;&#9;s4.9,11,11,11h49.7h17.7c6.1,0,11,4.9,11,11s-4.9,11-11,11h-1048c-6.1,0-11-4.9-11-11s4.9-11,11-11h252.8c6.1,0,11-4.9,11-11&#10;&#9;&#9;&#9;&#9;s-4.9-11-11-11h-75H553H134.2c-6.1,0-11-4.9-11-11v0C123.3,963.7,128.2,958.8,134.2,958.8z" transform="matrix(1, 0, 0, 1, 0, 0)"/><path fill="#423E3D" d="M320.8,1002.6h35.9c6.1,0,11,4.9,11,11v0c0,6.1-4.9,11-11,11h-35.9c-6.1,0-11-4.9-11-11v0&#10;&#9;&#9;&#9;&#9;C309.8,1007.5,314.8,1002.6,320.8,1002.6z" transform="matrix(1, 0, 0, 1, 0, 0)"/><path fill="#423E3D" d="M1486.3,1002.6h21.8c6.1,0,11,4.9,11,11v0c0,6.1-4.9,11-11,11h-21.8c-6.1,0-11-4.9-11-11v0&#10;&#9;&#9;&#9;&#9;C1475.3,1007.5,1480.2,1002.6,1486.3,1002.6z" transform="matrix(1, 0, 0, 1, 0, 0)"/>
</svg>